# xmcd
#
# Track frame offsets:
# 150
# 21245
# 45787
# 70272
# 90935
# 123037
# 157812
# 178050
# 199637
# 229482
#
# Disc length: 3577 seconds
#
# Revision: 0
# Processed by: cddbd v1.4PL0 Copyright (c) Steve Scherf et al.
# Submitted via: MacMP3 Pro 5.0 (http://mp3.act2.co.jp/)
#
DISCID=700df70a
DTITLE=Albert King - The Best Of Live Recordings
DYEAR=1900
DGENRE=
TTITLE0=Match Box Blues
TTITLE1=Got To Be Some Changes Made
TTITLE2=I Get Evil
TTITLE3=Born Under A Bad Sign
TTITLE4=Don't Make No Sense
TTITLE5=I'm Gonna Move To The Outskirts Of Town
TTITLE6=Don't Burn Down The Bridge ('Cause You Might Wanna Come Back Across)
TTITLE7=I Believe To My Sou
TTITLE8=I'll Pray The Blues For You
TTITLE9=Don't Throw Your Love On Me So Strong
EXTD=
EXTT0=
EXTT1=
EXTT2=
EXTT3=
EXTT4=
EXTT5=
EXTT6=
EXTT7=
EXTT8=
EXTT9=
PLAYORDER=
